%TF.GenerationSoftware,KiCad,Pcbnew,(5.99.0-3636-gf745036d8)*%
%TF.CreationDate,2020-10-30T20:07:45-04:00*%
%TF.ProjectId,waxMelter,7761784d-656c-4746-9572-2e6b69636164,rev?*%
%TF.SameCoordinates,Original*%
%TF.FileFunction,Legend,Bot*%
%TF.FilePolarity,Positive*%
%FSLAX46Y46*%
G04 Gerber Fmt 4.6, Leading zero omitted, Abs format (unit mm)*
G04 Created by KiCad (PCBNEW (5.99.0-3636-gf745036d8)) date 2020-10-30 20:07:45*
%MOMM*%
%LPD*%
G01*
G04 APERTURE LIST*
%ADD10C,0.150000*%
%ADD11C,0.120000*%
G04 APERTURE END LIST*
D10*
%TO.C,SW1*%
X136770761Y-104382666D02*
X136818380Y-104525523D01*
X136818380Y-104763619D01*
X136770761Y-104858857D01*
X136723142Y-104906476D01*
X136627904Y-104954095D01*
X136532666Y-104954095D01*
X136437428Y-104906476D01*
X136389809Y-104858857D01*
X136342190Y-104763619D01*
X136294571Y-104573142D01*
X136246952Y-104477904D01*
X136199333Y-104430285D01*
X136104095Y-104382666D01*
X136008857Y-104382666D01*
X135913619Y-104430285D01*
X135866000Y-104477904D01*
X135818380Y-104573142D01*
X135818380Y-104811238D01*
X135866000Y-104954095D01*
X135818380Y-105287428D02*
X136818380Y-105525523D01*
X136104095Y-105716000D01*
X136818380Y-105906476D01*
X135818380Y-106144571D01*
X136818380Y-107049333D02*
X136818380Y-106477904D01*
X136818380Y-106763619D02*
X135818380Y-106763619D01*
X135961238Y-106668380D01*
X136056476Y-106573142D01*
X136104095Y-106477904D01*
%TO.C,SW2*%
X127444761Y-104382666D02*
X127492380Y-104525523D01*
X127492380Y-104763619D01*
X127444761Y-104858857D01*
X127397142Y-104906476D01*
X127301904Y-104954095D01*
X127206666Y-104954095D01*
X127111428Y-104906476D01*
X127063809Y-104858857D01*
X127016190Y-104763619D01*
X126968571Y-104573142D01*
X126920952Y-104477904D01*
X126873333Y-104430285D01*
X126778095Y-104382666D01*
X126682857Y-104382666D01*
X126587619Y-104430285D01*
X126540000Y-104477904D01*
X126492380Y-104573142D01*
X126492380Y-104811238D01*
X126540000Y-104954095D01*
X126492380Y-105287428D02*
X127492380Y-105525523D01*
X126778095Y-105716000D01*
X127492380Y-105906476D01*
X126492380Y-106144571D01*
X126587619Y-106477904D02*
X126540000Y-106525523D01*
X126492380Y-106620761D01*
X126492380Y-106858857D01*
X126540000Y-106954095D01*
X126587619Y-107001714D01*
X126682857Y-107049333D01*
X126778095Y-107049333D01*
X126920952Y-107001714D01*
X127492380Y-106430285D01*
X127492380Y-107049333D01*
%TO.C,SW3*%
X117974761Y-104382666D02*
X118022380Y-104525523D01*
X118022380Y-104763619D01*
X117974761Y-104858857D01*
X117927142Y-104906476D01*
X117831904Y-104954095D01*
X117736666Y-104954095D01*
X117641428Y-104906476D01*
X117593809Y-104858857D01*
X117546190Y-104763619D01*
X117498571Y-104573142D01*
X117450952Y-104477904D01*
X117403333Y-104430285D01*
X117308095Y-104382666D01*
X117212857Y-104382666D01*
X117117619Y-104430285D01*
X117070000Y-104477904D01*
X117022380Y-104573142D01*
X117022380Y-104811238D01*
X117070000Y-104954095D01*
X117022380Y-105287428D02*
X118022380Y-105525523D01*
X117308095Y-105716000D01*
X118022380Y-105906476D01*
X117022380Y-106144571D01*
X117022380Y-106430285D02*
X117022380Y-107049333D01*
X117403333Y-106716000D01*
X117403333Y-106858857D01*
X117450952Y-106954095D01*
X117498571Y-107001714D01*
X117593809Y-107049333D01*
X117831904Y-107049333D01*
X117927142Y-107001714D01*
X117974761Y-106954095D01*
X118022380Y-106858857D01*
X118022380Y-106573142D01*
X117974761Y-106477904D01*
X117927142Y-106430285D01*
%TO.C,OLED1*%
X121967619Y-85748571D02*
X121967619Y-85558095D01*
X121920000Y-85462857D01*
X121824761Y-85367619D01*
X121634285Y-85320000D01*
X121300952Y-85320000D01*
X121110476Y-85367619D01*
X121015238Y-85462857D01*
X120967619Y-85558095D01*
X120967619Y-85748571D01*
X121015238Y-85843809D01*
X121110476Y-85939047D01*
X121300952Y-85986666D01*
X121634285Y-85986666D01*
X121824761Y-85939047D01*
X121920000Y-85843809D01*
X121967619Y-85748571D01*
X120967619Y-84415238D02*
X120967619Y-84891428D01*
X121967619Y-84891428D01*
X121491428Y-84081904D02*
X121491428Y-83748571D01*
X120967619Y-83605714D02*
X120967619Y-84081904D01*
X121967619Y-84081904D01*
X121967619Y-83605714D01*
X120967619Y-83177142D02*
X121967619Y-83177142D01*
X121967619Y-82939047D01*
X121920000Y-82796190D01*
X121824761Y-82700952D01*
X121729523Y-82653333D01*
X121539047Y-82605714D01*
X121396190Y-82605714D01*
X121205714Y-82653333D01*
X121110476Y-82700952D01*
X121015238Y-82796190D01*
X120967619Y-82939047D01*
X120967619Y-83177142D01*
X120967619Y-81653333D02*
X120967619Y-82224761D01*
X120967619Y-81939047D02*
X121967619Y-81939047D01*
X121824761Y-82034285D01*
X121729523Y-82129523D01*
X121681904Y-82224761D01*
D11*
%TO.C,SW1*%
X131366000Y-102216000D02*
X132866000Y-102216000D01*
X128866000Y-107966000D02*
X128866000Y-103466000D01*
X132866000Y-109216000D02*
X131366000Y-109216000D01*
X135366000Y-103466000D02*
X135366000Y-107966000D01*
%TO.C,SW2*%
X122040000Y-102216000D02*
X123540000Y-102216000D01*
X123540000Y-109216000D02*
X122040000Y-109216000D01*
X119540000Y-107966000D02*
X119540000Y-103466000D01*
X126040000Y-103466000D02*
X126040000Y-107966000D01*
%TO.C,SW3*%
X116570000Y-103466000D02*
X116570000Y-107966000D01*
X110070000Y-107966000D02*
X110070000Y-103466000D01*
X112570000Y-102216000D02*
X114070000Y-102216000D01*
X114070000Y-109216000D02*
X112570000Y-109216000D01*
%TO.C,OLED1*%
X135890000Y-69850000D02*
X107950000Y-69850000D01*
X107950000Y-69850000D02*
X107950000Y-97790000D01*
X107950000Y-97790000D02*
X135890000Y-97790000D01*
X135890000Y-97790000D02*
X135890000Y-69850000D01*
%TD*%
M02*
