%TF.GenerationSoftware,KiCad,Pcbnew,(5.99.0-3636-gf745036d8)*%
%TF.CreationDate,2020-10-30T20:07:45-04:00*%
%TF.ProjectId,waxMelter,7761784d-656c-4746-9572-2e6b69636164,rev?*%
%TF.SameCoordinates,Original*%
%TF.FileFunction,Legend,Top*%
%TF.FilePolarity,Positive*%
%FSLAX46Y46*%
G04 Gerber Fmt 4.6, Leading zero omitted, Abs format (unit mm)*
G04 Created by KiCad (PCBNEW (5.99.0-3636-gf745036d8)) date 2020-10-30 20:07:45*
%MOMM*%
%LPD*%
G01*
G04 APERTURE LIST*
%ADD10C,0.150000*%
%ADD11C,0.120000*%
G04 APERTURE END LIST*
D10*
X69341999Y-113738841D02*
X69341999Y-112595841D01*
X69777428Y-112595841D01*
X69886285Y-112650270D01*
X69940714Y-112704698D01*
X69995142Y-112813555D01*
X69995142Y-112976841D01*
X69940714Y-113085698D01*
X69886285Y-113140127D01*
X69777428Y-113194555D01*
X69341999Y-113194555D01*
X70484999Y-113738841D02*
X70484999Y-112595841D01*
X71029285Y-113738841D02*
X71029285Y-112595841D01*
X71301428Y-112595841D01*
X71464714Y-112650270D01*
X71573571Y-112759127D01*
X71627999Y-112867984D01*
X71682428Y-113085698D01*
X71682428Y-113248984D01*
X71627999Y-113466698D01*
X71573571Y-113575555D01*
X71464714Y-113684412D01*
X71301428Y-113738841D01*
X71029285Y-113738841D01*
X72879857Y-112595841D02*
X73532999Y-112595841D01*
X73206428Y-113738841D02*
X73206428Y-112595841D01*
X73913999Y-113738841D02*
X73913999Y-112595841D01*
X73913999Y-113140127D02*
X74567142Y-113140127D01*
X74567142Y-113738841D02*
X74567142Y-112595841D01*
X75111428Y-113140127D02*
X75492428Y-113140127D01*
X75655714Y-113738841D02*
X75111428Y-113738841D01*
X75111428Y-112595841D01*
X75655714Y-112595841D01*
X76798714Y-113738841D02*
X76417714Y-113194555D01*
X76145571Y-113738841D02*
X76145571Y-112595841D01*
X76580999Y-112595841D01*
X76689857Y-112650270D01*
X76744285Y-112704698D01*
X76798714Y-112813555D01*
X76798714Y-112976841D01*
X76744285Y-113085698D01*
X76689857Y-113140127D01*
X76580999Y-113194555D01*
X76145571Y-113194555D01*
X77288571Y-113738841D02*
X77288571Y-112595841D01*
X77669571Y-113412270D01*
X78050571Y-112595841D01*
X78050571Y-113738841D01*
X78812571Y-112595841D02*
X79030285Y-112595841D01*
X79139142Y-112650270D01*
X79247999Y-112759127D01*
X79302428Y-112976841D01*
X79302428Y-113357841D01*
X79247999Y-113575555D01*
X79139142Y-113684412D01*
X79030285Y-113738841D01*
X78812571Y-113738841D01*
X78703714Y-113684412D01*
X78594857Y-113575555D01*
X78540428Y-113357841D01*
X78540428Y-112976841D01*
X78594857Y-112759127D01*
X78703714Y-112650270D01*
X78812571Y-112595841D01*
X80445428Y-113629984D02*
X80390999Y-113684412D01*
X80227714Y-113738841D01*
X80118857Y-113738841D01*
X79955571Y-113684412D01*
X79846714Y-113575555D01*
X79792285Y-113466698D01*
X79737857Y-113248984D01*
X79737857Y-113085698D01*
X79792285Y-112867984D01*
X79846714Y-112759127D01*
X79955571Y-112650270D01*
X80118857Y-112595841D01*
X80227714Y-112595841D01*
X80390999Y-112650270D01*
X80445428Y-112704698D01*
X81152999Y-112595841D02*
X81370714Y-112595841D01*
X81479571Y-112650270D01*
X81588428Y-112759127D01*
X81642857Y-112976841D01*
X81642857Y-113357841D01*
X81588428Y-113575555D01*
X81479571Y-113684412D01*
X81370714Y-113738841D01*
X81152999Y-113738841D01*
X81044142Y-113684412D01*
X80935285Y-113575555D01*
X80880857Y-113357841D01*
X80880857Y-112976841D01*
X80935285Y-112759127D01*
X81044142Y-112650270D01*
X81152999Y-112595841D01*
X82132714Y-112595841D02*
X82132714Y-113521127D01*
X82187142Y-113629984D01*
X82241571Y-113684412D01*
X82350428Y-113738841D01*
X82568142Y-113738841D01*
X82676999Y-113684412D01*
X82731428Y-113629984D01*
X82785857Y-113521127D01*
X82785857Y-112595841D01*
X83330142Y-113738841D02*
X83330142Y-112595841D01*
X83765571Y-112595841D01*
X83874428Y-112650270D01*
X83928857Y-112704698D01*
X83983285Y-112813555D01*
X83983285Y-112976841D01*
X83928857Y-113085698D01*
X83874428Y-113140127D01*
X83765571Y-113194555D01*
X83330142Y-113194555D01*
X85017428Y-113738841D02*
X84473142Y-113738841D01*
X84473142Y-112595841D01*
X85398428Y-113140127D02*
X85779428Y-113140127D01*
X85942714Y-113738841D02*
X85398428Y-113738841D01*
X85398428Y-112595841D01*
X85942714Y-112595841D01*
X87956571Y-113629984D02*
X87902142Y-113684412D01*
X87738857Y-113738841D01*
X87629999Y-113738841D01*
X87466714Y-113684412D01*
X87357857Y-113575555D01*
X87303428Y-113466698D01*
X87248999Y-113248984D01*
X87248999Y-113085698D01*
X87303428Y-112867984D01*
X87357857Y-112759127D01*
X87466714Y-112650270D01*
X87629999Y-112595841D01*
X87738857Y-112595841D01*
X87902142Y-112650270D01*
X87956571Y-112704698D01*
X88664142Y-112595841D02*
X88881857Y-112595841D01*
X88990714Y-112650270D01*
X89099571Y-112759127D01*
X89153999Y-112976841D01*
X89153999Y-113357841D01*
X89099571Y-113575555D01*
X88990714Y-113684412D01*
X88881857Y-113738841D01*
X88664142Y-113738841D01*
X88555285Y-113684412D01*
X88446428Y-113575555D01*
X88391999Y-113357841D01*
X88391999Y-112976841D01*
X88446428Y-112759127D01*
X88555285Y-112650270D01*
X88664142Y-112595841D01*
X89643857Y-113738841D02*
X89643857Y-112595841D01*
X90296999Y-113738841D01*
X90296999Y-112595841D01*
X90677999Y-112595841D02*
X91331142Y-112595841D01*
X91004571Y-113738841D02*
X91004571Y-112595841D01*
X92365285Y-113738841D02*
X91984285Y-113194555D01*
X91712142Y-113738841D02*
X91712142Y-112595841D01*
X92147571Y-112595841D01*
X92256428Y-112650270D01*
X92310857Y-112704698D01*
X92365285Y-112813555D01*
X92365285Y-112976841D01*
X92310857Y-113085698D01*
X92256428Y-113140127D01*
X92147571Y-113194555D01*
X91712142Y-113194555D01*
X93072857Y-112595841D02*
X93290571Y-112595841D01*
X93399428Y-112650270D01*
X93508285Y-112759127D01*
X93562714Y-112976841D01*
X93562714Y-113357841D01*
X93508285Y-113575555D01*
X93399428Y-113684412D01*
X93290571Y-113738841D01*
X93072857Y-113738841D01*
X92963999Y-113684412D01*
X92855142Y-113575555D01*
X92800714Y-113357841D01*
X92800714Y-112976841D01*
X92855142Y-112759127D01*
X92963999Y-112650270D01*
X93072857Y-112595841D01*
X94596857Y-113738841D02*
X94052571Y-113738841D01*
X94052571Y-112595841D01*
X95522142Y-113738841D02*
X94977857Y-113738841D01*
X94977857Y-112595841D01*
X95903142Y-113140127D02*
X96284142Y-113140127D01*
X96447428Y-113738841D02*
X95903142Y-113738841D01*
X95903142Y-112595841D01*
X96447428Y-112595841D01*
X97590428Y-113738841D02*
X97209428Y-113194555D01*
X96937285Y-113738841D02*
X96937285Y-112595841D01*
X97372714Y-112595841D01*
X97481571Y-112650270D01*
X97535999Y-112704698D01*
X97590428Y-112813555D01*
X97590428Y-112976841D01*
X97535999Y-113085698D01*
X97481571Y-113140127D01*
X97372714Y-113194555D01*
X96937285Y-113194555D01*
X98842285Y-112595841D02*
X99114428Y-113738841D01*
X99332142Y-112922412D01*
X99549857Y-113738841D01*
X99821999Y-112595841D01*
X100202999Y-113412270D02*
X100747285Y-113412270D01*
X100094142Y-113738841D02*
X100475142Y-112595841D01*
X100856142Y-113738841D01*
X101128285Y-112595841D02*
X101890285Y-113738841D01*
X101890285Y-112595841D02*
X101128285Y-113738841D01*
X103196571Y-113738841D02*
X103196571Y-112595841D01*
X103577571Y-113412270D01*
X103958571Y-112595841D01*
X103958571Y-113738841D01*
X104502857Y-113140127D02*
X104883857Y-113140127D01*
X105047142Y-113738841D02*
X104502857Y-113738841D01*
X104502857Y-112595841D01*
X105047142Y-112595841D01*
X106081285Y-113738841D02*
X105536999Y-113738841D01*
X105536999Y-112595841D01*
X106298999Y-112595841D02*
X106952142Y-112595841D01*
X106625571Y-113738841D02*
X106625571Y-112595841D01*
X107333142Y-113140127D02*
X107714142Y-113140127D01*
X107877428Y-113738841D02*
X107333142Y-113738841D01*
X107333142Y-112595841D01*
X107877428Y-112595841D01*
X109020428Y-113738841D02*
X108639428Y-113194555D01*
X108367285Y-113738841D02*
X108367285Y-112595841D01*
X108802714Y-112595841D01*
X108911571Y-112650270D01*
X108965999Y-112704698D01*
X109020428Y-112813555D01*
X109020428Y-112976841D01*
X108965999Y-113085698D01*
X108911571Y-113140127D01*
X108802714Y-113194555D01*
X108367285Y-113194555D01*
X87412285Y-114436071D02*
X87793285Y-115579071D01*
X88174285Y-114436071D01*
X89154000Y-115579071D02*
X88500857Y-115579071D01*
X88827428Y-115579071D02*
X88827428Y-114436071D01*
X88718571Y-114599357D01*
X88609714Y-114708214D01*
X88500857Y-114762642D01*
X89643857Y-115470214D02*
X89698285Y-115524642D01*
X89643857Y-115579071D01*
X89589428Y-115524642D01*
X89643857Y-115470214D01*
X89643857Y-115579071D01*
X90405857Y-114436071D02*
X90514714Y-114436071D01*
X90623571Y-114490500D01*
X90678000Y-114544928D01*
X90732428Y-114653785D01*
X90786857Y-114871500D01*
X90786857Y-115143642D01*
X90732428Y-115361357D01*
X90678000Y-115470214D01*
X90623571Y-115524642D01*
X90514714Y-115579071D01*
X90405857Y-115579071D01*
X90297000Y-115524642D01*
X90242571Y-115470214D01*
X90188142Y-115361357D01*
X90133714Y-115143642D01*
X90133714Y-114871500D01*
X90188142Y-114653785D01*
X90242571Y-114544928D01*
X90297000Y-114490500D01*
X90405857Y-114436071D01*
X75356357Y-117854730D02*
X75301928Y-117800301D01*
X75193071Y-117637015D01*
X75138642Y-117528158D01*
X75084214Y-117364872D01*
X75029785Y-117092730D01*
X75029785Y-116875015D01*
X75084214Y-116602872D01*
X75138642Y-116439587D01*
X75193071Y-116330730D01*
X75301928Y-116167444D01*
X75356357Y-116113015D01*
X76444928Y-117310444D02*
X76390500Y-117364872D01*
X76227214Y-117419301D01*
X76118357Y-117419301D01*
X75955071Y-117364872D01*
X75846214Y-117256015D01*
X75791785Y-117147158D01*
X75737357Y-116929444D01*
X75737357Y-116766158D01*
X75791785Y-116548444D01*
X75846214Y-116439587D01*
X75955071Y-116330730D01*
X76118357Y-116276301D01*
X76227214Y-116276301D01*
X76390500Y-116330730D01*
X76444928Y-116385158D01*
X76825928Y-117854730D02*
X76880357Y-117800301D01*
X76989214Y-117637015D01*
X77043642Y-117528158D01*
X77098071Y-117364872D01*
X77152500Y-117092730D01*
X77152500Y-116875015D01*
X77098071Y-116602872D01*
X77043642Y-116439587D01*
X76989214Y-116330730D01*
X76880357Y-116167444D01*
X76825928Y-116113015D01*
X78513214Y-116385158D02*
X78567642Y-116330730D01*
X78676500Y-116276301D01*
X78948642Y-116276301D01*
X79057500Y-116330730D01*
X79111928Y-116385158D01*
X79166357Y-116494015D01*
X79166357Y-116602872D01*
X79111928Y-116766158D01*
X78458785Y-117419301D01*
X79166357Y-117419301D01*
X79873928Y-116276301D02*
X79982785Y-116276301D01*
X80091642Y-116330730D01*
X80146071Y-116385158D01*
X80200500Y-116494015D01*
X80254928Y-116711730D01*
X80254928Y-116983872D01*
X80200500Y-117201587D01*
X80146071Y-117310444D01*
X80091642Y-117364872D01*
X79982785Y-117419301D01*
X79873928Y-117419301D01*
X79765071Y-117364872D01*
X79710642Y-117310444D01*
X79656214Y-117201587D01*
X79601785Y-116983872D01*
X79601785Y-116711730D01*
X79656214Y-116494015D01*
X79710642Y-116385158D01*
X79765071Y-116330730D01*
X79873928Y-116276301D01*
X80690357Y-116385158D02*
X80744785Y-116330730D01*
X80853642Y-116276301D01*
X81125785Y-116276301D01*
X81234642Y-116330730D01*
X81289071Y-116385158D01*
X81343500Y-116494015D01*
X81343500Y-116602872D01*
X81289071Y-116766158D01*
X80635928Y-117419301D01*
X81343500Y-117419301D01*
X82051071Y-116276301D02*
X82159928Y-116276301D01*
X82268785Y-116330730D01*
X82323214Y-116385158D01*
X82377642Y-116494015D01*
X82432071Y-116711730D01*
X82432071Y-116983872D01*
X82377642Y-117201587D01*
X82323214Y-117310444D01*
X82268785Y-117364872D01*
X82159928Y-117419301D01*
X82051071Y-117419301D01*
X81942214Y-117364872D01*
X81887785Y-117310444D01*
X81833357Y-117201587D01*
X81778928Y-116983872D01*
X81778928Y-116711730D01*
X81833357Y-116494015D01*
X81887785Y-116385158D01*
X81942214Y-116330730D01*
X82051071Y-116276301D01*
X83792785Y-116983872D02*
X84663642Y-116983872D01*
X86078785Y-117419301D02*
X86078785Y-116276301D01*
X86459785Y-117092730D01*
X86840785Y-116276301D01*
X86840785Y-117419301D01*
X87330642Y-117092730D02*
X87874928Y-117092730D01*
X87221785Y-117419301D02*
X87602785Y-116276301D01*
X87983785Y-117419301D01*
X88364785Y-116820587D02*
X88745785Y-116820587D01*
X88909071Y-117419301D02*
X88364785Y-117419301D01*
X88364785Y-116276301D01*
X88909071Y-116276301D01*
X89235642Y-116276301D02*
X89616642Y-117419301D01*
X89997642Y-116276301D01*
X90378642Y-116820587D02*
X90759642Y-116820587D01*
X90922928Y-117419301D02*
X90378642Y-117419301D01*
X90378642Y-116276301D01*
X90922928Y-116276301D01*
X92229214Y-117364872D02*
X92392499Y-117419301D01*
X92664642Y-117419301D01*
X92773499Y-117364872D01*
X92827928Y-117310444D01*
X92882357Y-117201587D01*
X92882357Y-117092730D01*
X92827928Y-116983872D01*
X92773499Y-116929444D01*
X92664642Y-116875015D01*
X92446928Y-116820587D01*
X92338071Y-116766158D01*
X92283642Y-116711730D01*
X92229214Y-116602872D01*
X92229214Y-116494015D01*
X92283642Y-116385158D01*
X92338071Y-116330730D01*
X92446928Y-116276301D01*
X92719071Y-116276301D01*
X92882357Y-116330730D01*
X93208928Y-116276301D02*
X93862071Y-116276301D01*
X93535499Y-117419301D02*
X93535499Y-116276301D01*
X94243071Y-117419301D02*
X94243071Y-116276301D01*
X94624071Y-116276301D02*
X95277214Y-116276301D01*
X94950642Y-117419301D02*
X94950642Y-116276301D01*
X95658214Y-116820587D02*
X96039214Y-116820587D01*
X96202499Y-117419301D02*
X95658214Y-117419301D01*
X95658214Y-116276301D01*
X96202499Y-116276301D01*
X96637928Y-117364872D02*
X96801214Y-117419301D01*
X97073357Y-117419301D01*
X97182214Y-117364872D01*
X97236642Y-117310444D01*
X97291071Y-117201587D01*
X97291071Y-117092730D01*
X97236642Y-116983872D01*
X97182214Y-116929444D01*
X97073357Y-116875015D01*
X96855642Y-116820587D01*
X96746785Y-116766158D01*
X96692357Y-116711730D01*
X96637928Y-116602872D01*
X96637928Y-116494015D01*
X96692357Y-116385158D01*
X96746785Y-116330730D01*
X96855642Y-116276301D01*
X97127785Y-116276301D01*
X97291071Y-116330730D01*
X99577071Y-117419301D02*
X99522642Y-117419301D01*
X99413785Y-117364872D01*
X99250499Y-117201587D01*
X98978357Y-116875015D01*
X98869499Y-116711730D01*
X98815071Y-116548444D01*
X98815071Y-116439587D01*
X98869499Y-116330730D01*
X98978357Y-116276301D01*
X99032785Y-116276301D01*
X99141642Y-116330730D01*
X99196071Y-116439587D01*
X99196071Y-116494015D01*
X99141642Y-116602872D01*
X99087214Y-116657301D01*
X98760642Y-116875015D01*
X98706214Y-116929444D01*
X98651785Y-117038301D01*
X98651785Y-117201587D01*
X98706214Y-117310444D01*
X98760642Y-117364872D01*
X98869499Y-117419301D01*
X99032785Y-117419301D01*
X99141642Y-117364872D01*
X99196071Y-117310444D01*
X99359357Y-117092730D01*
X99413785Y-116929444D01*
X99413785Y-116820587D01*
X101590928Y-117310444D02*
X101536499Y-117364872D01*
X101373214Y-117419301D01*
X101264357Y-117419301D01*
X101101071Y-117364872D01*
X100992214Y-117256015D01*
X100937785Y-117147158D01*
X100883357Y-116929444D01*
X100883357Y-116766158D01*
X100937785Y-116548444D01*
X100992214Y-116439587D01*
X101101071Y-116330730D01*
X101264357Y-116276301D01*
X101373214Y-116276301D01*
X101536499Y-116330730D01*
X101590928Y-116385158D01*
X102298499Y-116276301D02*
X102516214Y-116276301D01*
X102625071Y-116330730D01*
X102733928Y-116439587D01*
X102788357Y-116657301D01*
X102788357Y-117038301D01*
X102733928Y-117256015D01*
X102625071Y-117364872D01*
X102516214Y-117419301D01*
X102298499Y-117419301D01*
X102189642Y-117364872D01*
X102080785Y-117256015D01*
X102026357Y-117038301D01*
X102026357Y-116657301D01*
X102080785Y-116439587D01*
X102189642Y-116330730D01*
X102298499Y-116276301D01*
X103278214Y-117310444D02*
X103332642Y-117364872D01*
X103278214Y-117419301D01*
X103223785Y-117364872D01*
X103278214Y-117310444D01*
X103278214Y-117419301D01*
%TO.C,U1*%
X113284095Y-77487047D02*
X113284095Y-78296571D01*
X113331714Y-78391809D01*
X113379333Y-78439428D01*
X113474571Y-78487047D01*
X113665047Y-78487047D01*
X113760285Y-78439428D01*
X113807904Y-78391809D01*
X113855523Y-78296571D01*
X113855523Y-77487047D01*
X114855523Y-78487047D02*
X114284095Y-78487047D01*
X114569809Y-78487047D02*
X114569809Y-77487047D01*
X114474571Y-77629905D01*
X114379333Y-77725143D01*
X114284095Y-77772762D01*
%TO.C,U4*%
X63539619Y-89662095D02*
X62730095Y-89662095D01*
X62634857Y-89709714D01*
X62587238Y-89757333D01*
X62539619Y-89852571D01*
X62539619Y-90043047D01*
X62587238Y-90138285D01*
X62634857Y-90185904D01*
X62730095Y-90233523D01*
X63539619Y-90233523D01*
X63206285Y-91138285D02*
X62539619Y-91138285D01*
X63587238Y-90900190D02*
X62872952Y-90662095D01*
X62872952Y-91281142D01*
%TO.C,U2*%
X88519095Y-87971380D02*
X88519095Y-88780904D01*
X88566714Y-88876142D01*
X88614333Y-88923761D01*
X88709571Y-88971380D01*
X88900047Y-88971380D01*
X88995285Y-88923761D01*
X89042904Y-88876142D01*
X89090523Y-88780904D01*
X89090523Y-87971380D01*
X89519095Y-88066619D02*
X89566714Y-88019000D01*
X89661952Y-87971380D01*
X89900047Y-87971380D01*
X89995285Y-88019000D01*
X90042904Y-88066619D01*
X90090523Y-88161857D01*
X90090523Y-88257095D01*
X90042904Y-88399952D01*
X89471476Y-88971380D01*
X90090523Y-88971380D01*
%TO.C,C4*%
X106783142Y-83498666D02*
X106830761Y-83546285D01*
X106878380Y-83689142D01*
X106878380Y-83784380D01*
X106830761Y-83927238D01*
X106735523Y-84022476D01*
X106640285Y-84070095D01*
X106449809Y-84117714D01*
X106306952Y-84117714D01*
X106116476Y-84070095D01*
X106021238Y-84022476D01*
X105926000Y-83927238D01*
X105878380Y-83784380D01*
X105878380Y-83689142D01*
X105926000Y-83546285D01*
X105973619Y-83498666D01*
X106211714Y-82641523D02*
X106878380Y-82641523D01*
X105830761Y-82879619D02*
X106545047Y-83117714D01*
X106545047Y-82498666D01*
%TO.C,U3*%
X63539619Y-73152095D02*
X62730095Y-73152095D01*
X62634857Y-73199714D01*
X62587238Y-73247333D01*
X62539619Y-73342571D01*
X62539619Y-73533047D01*
X62587238Y-73628285D01*
X62634857Y-73675904D01*
X62730095Y-73723523D01*
X63539619Y-73723523D01*
X63539619Y-74104476D02*
X63539619Y-74723523D01*
X63158666Y-74390190D01*
X63158666Y-74533047D01*
X63111047Y-74628285D01*
X63063428Y-74675904D01*
X62968190Y-74723523D01*
X62730095Y-74723523D01*
X62634857Y-74675904D01*
X62587238Y-74628285D01*
X62539619Y-74533047D01*
X62539619Y-74247333D01*
X62587238Y-74152095D01*
X62634857Y-74104476D01*
%TO.C,*%
%TO.C,C2*%
X127952142Y-63051666D02*
X127999761Y-63099285D01*
X128047380Y-63242142D01*
X128047380Y-63337380D01*
X127999761Y-63480238D01*
X127904523Y-63575476D01*
X127809285Y-63623095D01*
X127618809Y-63670714D01*
X127475952Y-63670714D01*
X127285476Y-63623095D01*
X127190238Y-63575476D01*
X127095000Y-63480238D01*
X127047380Y-63337380D01*
X127047380Y-63242142D01*
X127095000Y-63099285D01*
X127142619Y-63051666D01*
X127142619Y-62670714D02*
X127095000Y-62623095D01*
X127047380Y-62527857D01*
X127047380Y-62289761D01*
X127095000Y-62194523D01*
X127142619Y-62146904D01*
X127237857Y-62099285D01*
X127333095Y-62099285D01*
X127475952Y-62146904D01*
X128047380Y-62718333D01*
X128047380Y-62099285D01*
%TO.C,R1*%
X103433619Y-97623333D02*
X103909809Y-97290000D01*
X103433619Y-97051904D02*
X104433619Y-97051904D01*
X104433619Y-97432857D01*
X104386000Y-97528095D01*
X104338380Y-97575714D01*
X104243142Y-97623333D01*
X104100285Y-97623333D01*
X104005047Y-97575714D01*
X103957428Y-97528095D01*
X103909809Y-97432857D01*
X103909809Y-97051904D01*
X103433619Y-98575714D02*
X103433619Y-98004285D01*
X103433619Y-98290000D02*
X104433619Y-98290000D01*
X104290761Y-98194761D01*
X104195523Y-98099523D01*
X104147904Y-98004285D01*
%TO.C,*%
%TO.C,R2*%
X106624380Y-106338666D02*
X106148190Y-106672000D01*
X106624380Y-106910095D02*
X105624380Y-106910095D01*
X105624380Y-106529142D01*
X105672000Y-106433904D01*
X105719619Y-106386285D01*
X105814857Y-106338666D01*
X105957714Y-106338666D01*
X106052952Y-106386285D01*
X106100571Y-106433904D01*
X106148190Y-106529142D01*
X106148190Y-106910095D01*
X105719619Y-105957714D02*
X105672000Y-105910095D01*
X105624380Y-105814857D01*
X105624380Y-105576761D01*
X105672000Y-105481523D01*
X105719619Y-105433904D01*
X105814857Y-105386285D01*
X105910095Y-105386285D01*
X106052952Y-105433904D01*
X106624380Y-106005333D01*
X106624380Y-105386285D01*
%TO.C,C3*%
X129202142Y-71774666D02*
X129249761Y-71822285D01*
X129297380Y-71965142D01*
X129297380Y-72060380D01*
X129249761Y-72203238D01*
X129154523Y-72298476D01*
X129059285Y-72346095D01*
X128868809Y-72393714D01*
X128725952Y-72393714D01*
X128535476Y-72346095D01*
X128440238Y-72298476D01*
X128345000Y-72203238D01*
X128297380Y-72060380D01*
X128297380Y-71965142D01*
X128345000Y-71822285D01*
X128392619Y-71774666D01*
X128297380Y-71441333D02*
X128297380Y-70822285D01*
X128678333Y-71155619D01*
X128678333Y-71012761D01*
X128725952Y-70917523D01*
X128773571Y-70869904D01*
X128868809Y-70822285D01*
X129106904Y-70822285D01*
X129202142Y-70869904D01*
X129249761Y-70917523D01*
X129297380Y-71012761D01*
X129297380Y-71298476D01*
X129249761Y-71393714D01*
X129202142Y-71441333D01*
%TO.C,C1*%
X104735333Y-60047142D02*
X104687714Y-60094761D01*
X104544857Y-60142380D01*
X104449619Y-60142380D01*
X104306761Y-60094761D01*
X104211523Y-59999523D01*
X104163904Y-59904285D01*
X104116285Y-59713809D01*
X104116285Y-59570952D01*
X104163904Y-59380476D01*
X104211523Y-59285238D01*
X104306761Y-59190000D01*
X104449619Y-59142380D01*
X104544857Y-59142380D01*
X104687714Y-59190000D01*
X104735333Y-59237619D01*
X105687714Y-60142380D02*
X105116285Y-60142380D01*
X105402000Y-60142380D02*
X105402000Y-59142380D01*
X105306761Y-59285238D01*
X105211523Y-59380476D01*
X105116285Y-59428095D01*
%TO.C,*%
%TO.C,J1*%
X65865333Y-59856619D02*
X65865333Y-59142333D01*
X65912952Y-58999476D01*
X66008190Y-58904238D01*
X66151047Y-58856619D01*
X66246285Y-58856619D01*
X64865333Y-58856619D02*
X65436761Y-58856619D01*
X65151047Y-58856619D02*
X65151047Y-59856619D01*
X65246285Y-59713761D01*
X65341523Y-59618523D01*
X65436761Y-59570904D01*
D11*
%TO.C,U1*%
X111506000Y-65794667D02*
X111506000Y-62980667D01*
X114046000Y-65794667D02*
X114046000Y-62980667D01*
X116586000Y-65794667D02*
X116586000Y-62964667D01*
X109926000Y-77034667D02*
X109926000Y-65794667D01*
X118166000Y-77034667D02*
X118166000Y-65794667D01*
X118166000Y-77034667D02*
X109926000Y-77034667D01*
X118166000Y-65794667D02*
X109926000Y-65794667D01*
%TO.C,U4*%
X73279000Y-82677000D02*
X52959000Y-82677000D01*
X52959000Y-82677000D02*
X52959000Y-97917000D01*
X52959000Y-97917000D02*
X73279000Y-97917000D01*
X73279000Y-97917000D02*
X73279000Y-82677000D01*
%TO.C,U2*%
X78359000Y-58547000D02*
X101219000Y-58547000D01*
X101219000Y-58547000D02*
X101219000Y-109347000D01*
X101219000Y-109347000D02*
X78359000Y-109347000D01*
X78359000Y-109347000D02*
X78359000Y-58547000D01*
%TO.C,C4*%
X104551000Y-81212000D02*
X105256000Y-81212000D01*
X102516000Y-85452000D02*
X102516000Y-81212000D01*
X102516000Y-85452000D02*
X103221000Y-85452000D01*
X102516000Y-81212000D02*
X103221000Y-81212000D01*
X105256000Y-85452000D02*
X105256000Y-81212000D01*
X104551000Y-85452000D02*
X105256000Y-85452000D01*
%TO.C,U3*%
X73279000Y-66167000D02*
X52959000Y-66167000D01*
X52959000Y-66167000D02*
X52959000Y-81407000D01*
X52959000Y-81407000D02*
X73279000Y-81407000D01*
X73279000Y-81407000D02*
X73279000Y-66167000D01*
%TO.C,C2*%
X126465000Y-65005000D02*
X125760000Y-65005000D01*
X124430000Y-60765000D02*
X123725000Y-60765000D01*
X126465000Y-60765000D02*
X126465000Y-65005000D01*
X124430000Y-65005000D02*
X123725000Y-65005000D01*
X126465000Y-60765000D02*
X125760000Y-60765000D01*
X123725000Y-60765000D02*
X123725000Y-65005000D01*
%TO.C,R1*%
X104648000Y-95758000D02*
X102870000Y-95758000D01*
X102870000Y-95758000D02*
X102870000Y-99822000D01*
X102870000Y-99822000D02*
X104648000Y-99822000D01*
X104648000Y-99822000D02*
X104648000Y-95758000D01*
%TO.C,R2*%
X105410000Y-108204000D02*
X107188000Y-108204000D01*
X107188000Y-108204000D02*
X107188000Y-104140000D01*
X107188000Y-104140000D02*
X105410000Y-104140000D01*
X105410000Y-104140000D02*
X105410000Y-108204000D01*
%TO.C,C3*%
X124055000Y-73849000D02*
X123776000Y-73849000D01*
X124055000Y-72569000D02*
X122697000Y-72569000D01*
X124055000Y-72288000D02*
X122604000Y-72288000D01*
X124055000Y-73209000D02*
X123060000Y-73209000D01*
X127460000Y-72649000D02*
X126135000Y-72649000D01*
X124055000Y-73649000D02*
X123490000Y-73649000D01*
X124055000Y-72248000D02*
X122594000Y-72248000D01*
X127586000Y-72288000D02*
X126135000Y-72288000D01*
X124055000Y-73329000D02*
X123158000Y-73329000D01*
X127673000Y-71728000D02*
X122517000Y-71728000D01*
X124055000Y-72168000D02*
X122575000Y-72168000D01*
X124055000Y-72889000D02*
X122848000Y-72889000D01*
X124055000Y-73569000D02*
X123396000Y-73569000D01*
X124055000Y-72048000D02*
X122552000Y-72048000D01*
X124055000Y-73809000D02*
X123712000Y-73809000D01*
X127405000Y-72769000D02*
X126135000Y-72769000D01*
X127424000Y-72729000D02*
X126135000Y-72729000D01*
X126414000Y-73849000D02*
X126135000Y-73849000D01*
X124055000Y-72609000D02*
X122713000Y-72609000D01*
X127066000Y-73289000D02*
X126135000Y-73289000D01*
X127575000Y-72329000D02*
X126135000Y-72329000D01*
X124055000Y-71968000D02*
X122539000Y-71968000D01*
X124055000Y-72208000D02*
X122584000Y-72208000D01*
X127363000Y-72849000D02*
X126135000Y-72849000D01*
X124055000Y-73409000D02*
X123231000Y-73409000D01*
X124055000Y-71928000D02*
X122534000Y-71928000D01*
X124055000Y-72769000D02*
X122785000Y-72769000D01*
X126106000Y-74009000D02*
X124084000Y-74009000D01*
X126794000Y-73569000D02*
X126135000Y-73569000D01*
X127537000Y-72449000D02*
X126135000Y-72449000D01*
X126996000Y-73369000D02*
X126135000Y-73369000D01*
X125772000Y-74129000D02*
X124418000Y-74129000D01*
X124055000Y-71848000D02*
X122526000Y-71848000D01*
X124055000Y-73089000D02*
X122973000Y-73089000D01*
X124055000Y-73289000D02*
X123124000Y-73289000D01*
X124055000Y-73529000D02*
X123352000Y-73529000D01*
X127675000Y-71608000D02*
X122515000Y-71608000D01*
X126820000Y-69053225D02*
X126320000Y-69053225D01*
X127615000Y-72168000D02*
X126135000Y-72168000D01*
X127443000Y-72689000D02*
X126135000Y-72689000D01*
X127664000Y-71848000D02*
X126135000Y-71848000D01*
X126273000Y-73929000D02*
X123917000Y-73929000D01*
X124055000Y-73009000D02*
X122920000Y-73009000D01*
X125613000Y-74169000D02*
X124577000Y-74169000D01*
X126921000Y-73449000D02*
X126135000Y-73449000D01*
X125379000Y-74209000D02*
X124811000Y-74209000D01*
X127656000Y-71928000D02*
X126135000Y-71928000D01*
X126346000Y-73889000D02*
X126135000Y-73889000D01*
X126595000Y-73729000D02*
X126135000Y-73729000D01*
X124055000Y-72969000D02*
X122895000Y-72969000D01*
X124055000Y-72929000D02*
X122871000Y-72929000D01*
X126649000Y-73689000D02*
X126135000Y-73689000D01*
X127645000Y-72008000D02*
X126135000Y-72008000D01*
X127651000Y-71968000D02*
X126135000Y-71968000D01*
X124055000Y-72529000D02*
X122681000Y-72529000D01*
X126478000Y-73809000D02*
X126135000Y-73809000D01*
X127606000Y-72208000D02*
X126135000Y-72208000D01*
X127638000Y-72048000D02*
X126135000Y-72048000D01*
X127660000Y-71888000D02*
X126135000Y-71888000D01*
X127523000Y-72489000D02*
X126135000Y-72489000D01*
X127160000Y-73169000D02*
X126135000Y-73169000D01*
X127675000Y-71648000D02*
X122515000Y-71648000D01*
X127130000Y-73209000D02*
X126135000Y-73209000D01*
X124055000Y-73689000D02*
X123541000Y-73689000D01*
X124055000Y-73169000D02*
X123030000Y-73169000D01*
X124055000Y-73049000D02*
X122946000Y-73049000D01*
X124055000Y-72809000D02*
X122805000Y-72809000D01*
X124055000Y-72329000D02*
X122615000Y-72329000D01*
X126538000Y-73769000D02*
X126135000Y-73769000D01*
X127563000Y-72369000D02*
X126135000Y-72369000D01*
X124055000Y-73769000D02*
X123652000Y-73769000D01*
X127509000Y-72529000D02*
X126135000Y-72529000D01*
X124055000Y-72849000D02*
X122827000Y-72849000D01*
X124055000Y-72729000D02*
X122766000Y-72729000D01*
X125900000Y-74089000D02*
X124290000Y-74089000D01*
X127099000Y-73249000D02*
X126135000Y-73249000D01*
X127550000Y-72409000D02*
X126135000Y-72409000D01*
X126748000Y-73609000D02*
X126135000Y-73609000D01*
X127190000Y-73129000D02*
X126135000Y-73129000D01*
X124055000Y-73609000D02*
X123442000Y-73609000D01*
X127385000Y-72809000D02*
X126135000Y-72809000D01*
X127270000Y-73009000D02*
X126135000Y-73009000D01*
X124055000Y-72008000D02*
X122545000Y-72008000D01*
X124055000Y-72369000D02*
X122627000Y-72369000D01*
X124055000Y-73449000D02*
X123269000Y-73449000D01*
X124055000Y-72128000D02*
X122567000Y-72128000D01*
X124055000Y-72649000D02*
X122730000Y-72649000D01*
X124055000Y-72088000D02*
X122559000Y-72088000D01*
X127671000Y-71768000D02*
X122519000Y-71768000D01*
X127217000Y-73089000D02*
X126135000Y-73089000D01*
X124055000Y-72449000D02*
X122653000Y-72449000D01*
X126880000Y-73489000D02*
X126135000Y-73489000D01*
X127493000Y-72569000D02*
X126135000Y-72569000D01*
X127342000Y-72889000D02*
X126135000Y-72889000D01*
X124055000Y-72409000D02*
X122640000Y-72409000D01*
X124055000Y-72489000D02*
X122667000Y-72489000D01*
X127631000Y-72088000D02*
X126135000Y-72088000D01*
X126570000Y-68803225D02*
X126570000Y-69303225D01*
X127668000Y-71808000D02*
X122522000Y-71808000D01*
X124055000Y-72689000D02*
X122747000Y-72689000D01*
X124055000Y-73129000D02*
X123000000Y-73129000D01*
X124055000Y-73369000D02*
X123194000Y-73369000D01*
X127319000Y-72929000D02*
X126135000Y-72929000D01*
X127596000Y-72248000D02*
X126135000Y-72248000D01*
X124055000Y-73889000D02*
X123844000Y-73889000D01*
X124055000Y-73729000D02*
X123595000Y-73729000D01*
X126193000Y-73969000D02*
X123997000Y-73969000D01*
X127295000Y-72969000D02*
X126135000Y-72969000D01*
X126700000Y-73649000D02*
X126135000Y-73649000D01*
X127244000Y-73049000D02*
X126135000Y-73049000D01*
X124055000Y-73489000D02*
X123310000Y-73489000D01*
X124055000Y-71888000D02*
X122530000Y-71888000D01*
X126959000Y-73409000D02*
X126135000Y-73409000D01*
X126010000Y-74049000D02*
X124180000Y-74049000D01*
X126838000Y-73529000D02*
X126135000Y-73529000D01*
X124055000Y-73249000D02*
X123091000Y-73249000D01*
X127674000Y-71688000D02*
X122516000Y-71688000D01*
X127477000Y-72609000D02*
X126135000Y-72609000D01*
X127032000Y-73329000D02*
X126135000Y-73329000D01*
X127623000Y-72128000D02*
X126135000Y-72128000D01*
X127715000Y-71608000D02*
G75*
G03*
X127715000Y-71608000I-2620000J0D01*
G01*
%TO.C,C1*%
X106145000Y-65219000D02*
X105440000Y-65219000D01*
X104110000Y-60979000D02*
X103405000Y-60979000D01*
X106145000Y-60979000D02*
X106145000Y-65219000D01*
X103405000Y-60979000D02*
X103405000Y-65219000D01*
X104110000Y-65219000D02*
X103405000Y-65219000D01*
X106145000Y-60979000D02*
X105440000Y-60979000D01*
%TO.C,J1*%
X69342000Y-64135000D02*
X62042040Y-64135000D01*
X62042040Y-64135000D02*
X62042040Y-60629800D01*
X62042040Y-60629800D02*
X69342000Y-60629800D01*
X69342000Y-60629800D02*
X69342000Y-64135000D01*
%TD*%
M02*
