M48
; DRILL file {KiCad (5.99.0-3636-gf745036d8)} date Fri Oct 30 20:08:02 2020
; FORMAT={-:-/ absolute / inch / decimal}
; #@! TF.CreationDate,2020-10-30T20:08:02-04:00
; #@! TF.GenerationSoftware,Kicad,Pcbnew,(5.99.0-3636-gf745036d8)
FMAT,2
INCH
T1C0.0290
T2C0.0315
T3C0.0394
T4C0.0433
T5C0.0440
T6C0.1260
T7C0.1260
%
G90
G05
T1
X4.09Y-3.725
X4.09Y-3.975
X4.18Y-4.055
X4.18Y-4.305
T2
X4.925Y-2.4266
X4.925Y-2.525
X4.125Y-2.5334
X4.09Y-3.2316
X4.09Y-3.33
X4.925Y-2.77
X4.925Y-2.8684
X4.125Y-2.435
T3
X2.8Y-3.41
X2.8Y-3.51
X2.8Y-3.61
X2.8Y-3.71
X3.145Y-2.555
X3.145Y-2.655
X3.145Y-2.755
X3.145Y-2.855
X3.145Y-2.955
X3.145Y-3.055
X3.145Y-3.155
X3.145Y-3.255
X3.145Y-3.355
X3.145Y-3.455
X3.145Y-3.555
X3.145Y-3.655
X3.145Y-3.755
X3.145Y-3.855
X3.145Y-3.955
X3.145Y-4.055
X3.923Y-2.955
X3.923Y-3.055
X3.923Y-3.155
X3.923Y-3.255
X3.923Y-3.355
X3.923Y-3.455
X3.923Y-3.555
X3.923Y-3.655
X3.923Y-3.755
X3.923Y-3.855
X3.923Y-3.955
X3.923Y-4.055
X4.32Y-3.15
X4.32Y-3.25
X4.32Y-3.35
X4.32Y-3.45
X2.8Y-2.76
X2.8Y-2.86
X2.8Y-2.96
X2.8Y-3.06
X4.39Y-2.4376
X4.49Y-2.4376
X4.59Y-2.4376
T4
X5.1128Y-4.0341
X5.1128Y-4.29
X5.29Y-4.0341
X5.29Y-4.29
X4.7457Y-4.0341
X4.7457Y-4.29
X4.9228Y-4.0341
X4.9228Y-4.29
X4.3728Y-4.0341
X4.3728Y-4.29
X4.55Y-4.0341
X4.55Y-4.29
T5
X2.521Y-2.455
X2.659Y-2.455
T6
X2.2Y-2.35
X5.3Y-4.55
X5.3Y-2.35
X2.2Y-4.55
T7
X4.49Y-2.8746
T0
M30
